HIERARCHY
ROOT Hips
{
	OFFSET 64.689003 -29.221914 87.034996
	CHANNELS 6 Xposition Yposition Zposition Xrotation Yrotation Zrotation
	JOINT spine
	{
		OFFSET 0.000000 -0.393702 6.846367
		CHANNELS 3 Xrotation Yrotation Zrotation
		JOINT spine1
		{
			OFFSET 0.000000 -0.000002 9.496208
			CHANNELS 3 Xrotation Yrotation Zrotation
			JOINT spine2
			{
				OFFSET 0.000000 -0.000002 9.099091
				CHANNELS 3 Xrotation Yrotation Zrotation
				JOINT Neck
				{
					OFFSET 0.000000 -1.113785 23.361214
					CHANNELS 3 Xrotation Yrotation Zrotation
					JOINT Head
					{
						OFFSET 0.000000 0.000000 7.058014
						CHANNELS 3 Xrotation Yrotation Zrotation
						End Site
						{
							OFFSET 0.000000 5.634186 17.084396
						}
					}
				}
				JOINT RightShoulder
				{
					OFFSET -3.831360 0.533491 9.826309
					CHANNELS 3 Xrotation Yrotation Zrotation
					JOINT RightArm
					{
						OFFSET 0.000000 -0.000004 12.888100
						CHANNELS 3 Xrotation Yrotation Zrotation
						JOINT RightArmRoll
						{
							OFFSET 0.000000 0.000000 6.506165
							CHANNELS 3 Xrotation Yrotation Zrotation
							JOINT RightForeArm
							{
								OFFSET 0.000000 -0.000004 18.950104
								CHANNELS 3 Xrotation Yrotation Zrotation
								JOINT RightForeArmRoll
								{
									OFFSET 0.000000 0.000000 7.300919
									CHANNELS 3 Xrotation Yrotation Zrotation
									JOINT RightHand
									{
										OFFSET 0.000000 -0.000004 14.651398
										CHANNELS 3 Xrotation Yrotation Zrotation
										End Site
										{
											OFFSET 0.000000 0.000000 0.100006
										}
									}
								}
							}
						}
					}
				}
				JOINT LeftShoulder
				{
					OFFSET 3.831360 0.533491 9.826309
					CHANNELS 3 Xrotation Yrotation Zrotation
					JOINT LeftArm
					{
						OFFSET 0.000000 -0.000004 12.888100
						CHANNELS 3 Xrotation Yrotation Zrotation
						JOINT LeftArmRoll
						{
							OFFSET 0.000000 0.000000 6.506165
							CHANNELS 3 Xrotation Yrotation Zrotation
							JOINT LeftForeArm
							{
								OFFSET 0.000000 -0.000004 18.950104
								CHANNELS 3 Xrotation Yrotation Zrotation
								JOINT LeftForeArmRoll
								{
									OFFSET 0.000000 0.000000 7.300919
									CHANNELS 3 Xrotation Yrotation Zrotation
									JOINT LeftHand
									{
										OFFSET 0.000000 -0.000004 14.651398
										CHANNELS 3 Xrotation Yrotation Zrotation
										End Site
										{
											OFFSET 0.000000 0.000000 0.100006
										}
									}
								}
							}
						}
					}
				}
			}
		}
	}
	JOINT RightUpLeg
	{
		OFFSET -6.068371 0.933477 -1.112778
		CHANNELS 3 Xrotation Yrotation Zrotation
		JOINT RightUpLegRoll
		{
			OFFSET 0.000000 -0.000004 17.179596
			CHANNELS 3 Xrotation Yrotation Zrotation
			JOINT RightLeg
			{
				OFFSET 0.000000 0.000004 -21.274300
				CHANNELS 3 Xrotation Yrotation Zrotation
				JOINT RightLegRoll
				{
					OFFSET 0.000000 -0.000004 21.343903
					CHANNELS 3 Xrotation Yrotation Zrotation
					JOINT RightFoot
					{
						OFFSET 0.000000 -0.000002 17.765198
						CHANNELS 3 Xrotation Yrotation Zrotation
						JOINT RightToeBase
						{
							OFFSET 0.000000 -0.000004 14.850800
							CHANNELS 3 Xrotation Yrotation Zrotation
							End Site
							{
								OFFSET 0.006294 0.829004 7.192123
							}
						}
					}
				}
			}
		}
	}
	JOINT LeftUpLeg
	{
		OFFSET 6.068367 0.933477 -1.112778
		CHANNELS 3 Xrotation Yrotation Zrotation
		JOINT LeftUpLegRoll
		{
			OFFSET 0.000000 -0.000004 17.179703
			CHANNELS 3 Xrotation Yrotation Zrotation
			JOINT LeftLeg
			{
				OFFSET 0.000000 -0.000004 21.274200
				CHANNELS 3 Xrotation Yrotation Zrotation
				JOINT LeftLegRoll
				{
					OFFSET 0.000000 -0.000002 21.541206
					CHANNELS 3 Xrotation Yrotation Zrotation
					JOINT LeftFoot
					{
						OFFSET 0.000000 -0.000004 17.567902
						CHANNELS 3 Xrotation Yrotation Zrotation
						JOINT LeftToeBase
						{
							OFFSET 0.000000 -0.000002 14.850800
							CHANNELS 3 Xrotation Yrotation Zrotation
							End Site
							{
								OFFSET -0.028214 0.829002 7.192139
							}
						}
					}
				}
			}
		}
	}
}
MOTION
Frames: 7
Frame Time: 0.041667
51.972012 -9.162422 86.615105 -1.069824 -1.177164 -0.247271 -1.831600 -1.244074 1.057659 0.356995 -2.489132 2.081803 2.002252 -2.464136 2.111579 5.344871 16.947656 -4.678974 8.228844 -12.362307 -5.180907 -13.774512 -52.241723 -16.023053 -62.164072 -109.916868 -36.014420 -0.000001 -0.000001 -0.000004 5.014458 -12.287234 0.023346 -0.000001 0.000011 -3.004500 -5.000236 -7.998724 0.000161 -22.872476 70.942579 26.701918 -76.547918 114.689490 47.590255 -0.000002 0.000003 0.000005 8.411221 12.842069 -1.301589 0.000009 -0.000010 3.005809 -5.000192 7.998712 -0.000157 -15.567678 -177.950006 -1.808122 -179.999991 0.000005 -1.124995 155.232687 -3.265974 -1.305674 0.000002 0.000005 0.609078 72.756623 7.233383 0.838977 25.456899 -7.348048 0.000004 -12.428818 178.991200 1.363809 -0.000004 -0.000004 -1.008100 -24.043610 1.303113 1.135219 -0.000001 -0.000004 -0.572102 74.845582 -6.156914 -3.903591 25.456965 7.355624 -0.000003 
51.970207 -9.173256 86.614113 -1.066385 -1.181625 -0.242023 -1.831799 -1.243085 1.058146 0.357025 -2.489682 2.083818 2.002283 -2.464656 2.113579 5.325641 16.948851 -4.677581 8.244814 -12.359150 -5.181468 -13.778007 -52.247761 -16.027565 -62.197526 -109.966421 -36.089056 -0.000002 0.000001 -0.000002 5.005984 -12.304229 0.025032 0.000001 0.000011 -3.004497 -5.000237 -7.998723 0.000162 -22.875664 70.944724 26.705372 -76.503986 114.704052 47.573381 -0.000002 0.000001 0.000008 8.414041 12.858613 -1.302478 0.000012 -0.000011 3.005810 -5.000191 7.998713 -0.000162 -15.563389 -177.909489 -1.747352 -179.999991 0.000005 -1.124995 155.247249 -3.317253 -1.309255 0.000003 0.000005 0.605106 72.752190 7.245943 0.805474 25.456899 -7.348048 0.000003 -12.428876 179.002920 1.378226 -0.000004 -0.000005 -1.008100 -24.032123 1.294863 1.135171 -0.000000 -0.000004 -0.572100 74.837071 -6.156454 -3.907696 25.456962 7.355624 -0.000003 
51.971207 -9.175173 86.617409 -1.063119 -1.186175 -0.236767 -1.831990 -1.242055 1.058625 0.357060 -2.490273 2.085853 2.002314 -2.465217 2.115610 5.305965 16.950161 -4.676205 8.261267 -12.356074 -5.182060 -13.781799 -52.254058 -16.032464 -62.232067 -110.016323 -36.164137 -0.000002 0.000001 -0.000005 4.997320 -12.320730 0.026654 -0.000001 0.000011 -3.004498 -5.000241 -7.998723 0.000161 -22.878982 70.946848 26.709002 -76.460409 114.719529 47.557006 -0.000002 -0.000000 0.000002 8.416384 12.875074 -1.303314 0.000008 -0.000010 3.005810 -5.000195 7.998711 -0.000162 -15.558619 -177.867046 -1.684332 -179.999991 0.000005 -1.124995 155.262535 -3.371283 -1.315013 0.000003 0.000005 0.600983 72.747334 7.259033 0.770682 25.456901 -7.348049 0.000004 -12.428728 179.015624 1.392955 -0.000005 -0.000004 -1.008100 -24.020437 1.286302 1.135143 -0.000001 -0.000004 -0.572096 74.828233 -6.155993 -3.911917 25.456967 7.355625 -0.000003 
51.985012 -9.147604 86.614616 -1.059978 -1.190796 -0.231506 -1.832188 -1.241015 1.059094 0.357100 -2.490891 2.087909 2.002355 -2.465795 2.117652 5.285955 16.951478 -4.674842 8.278077 -12.353187 -5.182673 -13.785816 -52.260544 -16.037646 -62.267659 -110.066572 -36.239843 -0.000001 0.000002 -0.000005 4.988539 -12.337033 0.028235 0.000002 0.000012 -3.004500 -5.000237 -7.998723 0.000164 -22.882396 70.948966 26.712726 -76.417031 114.735526 47.540767 -0.000002 0.000001 0.000006 8.418382 12.891450 -1.304110 0.000011 -0.000011 3.005810 -5.000191 7.998711 -0.000159 -15.553466 -177.823647 -1.619647 -179.999991 0.000005 -1.124995 155.278231 -3.427153 -1.319553 0.000002 0.000005 0.596754 72.742382 7.272442 0.734946 25.456899 -7.348049 0.000003 -12.428578 179.028301 1.408057 -0.000005 -0.000005 -1.008100 -24.008544 1.277532 1.135133 -0.000000 -0.000004 -0.572091 74.819081 -6.155566 -3.916262 25.456964 7.355625 -0.000003 
51.982407 -9.156593 86.615517 -1.056898 -1.195436 -0.226242 -1.832389 -1.239956 1.059544 0.357140 -2.491512 2.089974 2.002395 -2.466394 2.119704 5.265768 16.952890 -4.673495 8.295090 -12.350390 -5.183276 -13.789944 -52.267101 -16.042965 -62.303517 -110.117082 -36.315689 -0.000001 0.000000 -0.000003 4.979687 -12.353239 0.029791 0.000002 0.000010 -3.004500 -5.000237 -7.998723 0.000164 -22.885894 70.951076 26.716539 -76.373645 114.751850 47.524586 -0.000003 0.000002 0.000007 8.420171 12.907736 -1.304878 0.000010 -0.000011 3.005813 -5.000193 7.998712 -0.000163 -15.548123 -177.780235 -1.553841 -179.999991 0.000005 -1.124995 155.294227 -3.483058 -1.324051 0.000003 0.000005 0.592465 72.737307 7.286054 0.698751 25.456894 -7.348048 0.000003 -12.428333 179.041005 1.423374 -0.000005 -0.000005 -1.008100 -23.996548 1.268624 1.135127 -0.000001 -0.000004 -0.572086 74.809833 -6.155138 -3.920711 25.456969 7.355625 -0.000004 
51.994011 -9.157408 86.632210 -1.053840 -1.200097 -0.220977 -1.832590 -1.238896 1.060003 0.357183 -2.492141 2.092030 2.002436 -2.466984 2.121756 5.245538 16.954210 -4.672146 8.312142 -12.347591 -5.183892 -13.794090 -52.273664 -16.048301 -62.339382 -110.167686 -36.391299 -0.000004 -0.000001 -0.000006 4.970818 -12.369347 0.031336 0.000000 0.000010 -3.004501 -5.000239 -7.998723 0.000162 -22.889286 70.953091 26.720234 -76.330424 114.768283 47.508549 -0.000003 0.000001 0.000008 8.421930 12.924123 -1.305659 0.000006 -0.000011 3.005807 -5.000191 7.998712 -0.000159 -15.542707 -177.735852 -1.488028 -179.999991 0.000005 -1.124995 155.310278 -3.538968 -1.329503 0.000003 0.000005 0.588162 72.732164 7.299737 0.662470 25.456899 -7.348048 0.000004 -12.428088 179.053710 1.438752 -0.000004 -0.000004 -1.008100 -23.984559 1.259687 1.135128 0.000000 -0.000004 -0.572081 74.800564 -6.154688 -3.925159 25.456964 7.355624 -0.000003 
51.992004 -9.151815 86.632706 -1.050752 -1.204727 -0.215712 -1.832785 -1.237836 1.060463 0.357224 -2.492772 2.094095 2.002477 -2.467584 2.123799 5.225393 16.955618 -4.670790 8.329109 -12.344795 -5.184513 -13.798172 -52.280133 -16.053559 -62.374319 -110.218216 -36.466158 -0.000001 0.000000 -0.000005 4.961980 -12.385457 0.032885 0.000000 0.000012 -3.004501 -5.000237 -7.998723 0.000163 -22.892762 70.955208 26.724034 -76.287189 114.784635 47.492494 -0.000002 0.000000 0.000005 8.423782 12.940497 -1.306445 0.000010 -0.000008 3.005814 -5.000188 7.998714 -0.000159 -15.537379 -177.692426 -1.422495 -179.999991 0.000005 -1.124995 155.326124 -3.594899 -1.333945 0.000001 0.000005 0.583888 72.727096 7.313335 0.626377 25.456897 -7.348048 0.000003 -12.427832 179.067370 1.453798 -0.000004 -0.000004 -1.008100 -23.972567 1.250822 1.135132 0.000000 -0.000004 -0.572076 74.791323 -6.154281 -3.929409 25.456965 7.355624 -0.000003 
